<svg width="24" height="24" viewBox="0 0 24 24" fill="none" xmlns="http://www.w3.org/2000/svg">
<path d="M14.3384 8.80371L7.21338 21.1446" stroke="#0A2533" stroke-width="1.5" stroke-linecap="round" stroke-linejoin="round"/>
<path d="M12.5666 18.8944C11.2246 19.2539 9.08124 18.1811 9.08124 18.1811C9.08124 18.1811 10.4288 15.7833 11.9305 15.496C13.2566 15.2424 15.2284 16.534 15.2284 16.534C15.2284 16.534 13.9086 18.5348 12.5666 18.8944Z" stroke="#0A2533" stroke-width="1.5" stroke-linecap="round" stroke-linejoin="round"/>
<path d="M15.568 13.6956C14.2261 14.0552 12.0827 12.9824 12.0827 12.9824C12.0827 12.9824 13.4303 10.5846 14.932 10.2973C16.2581 10.0436 18.2298 11.3353 18.2298 11.3353C18.2298 11.3353 16.91 13.336 15.568 13.6956Z" stroke="#0A2533" stroke-width="1.5" stroke-linecap="round" stroke-linejoin="round"/>
<path d="M17.3073 6.84352C16.6127 8.0467 14.3385 8.8037 14.3385 8.8037C14.3385 8.8037 13.5958 6.15531 14.4546 4.8903C15.2129 3.77321 17.5205 3.29234 17.5205 3.29234C17.5205 3.29234 18.002 5.64033 17.3073 6.84352Z" stroke="#0A2533" stroke-width="1.5" stroke-linecap="round" stroke-linejoin="round"/>
<path d="M6.39629 15.3318C6.75587 16.6737 8.75663 17.9936 8.75663 17.9936C8.75663 17.9936 10.1594 15.6276 9.65735 14.1835C9.21398 12.9082 7.10952 11.8464 7.10952 11.8464C7.10952 11.8464 6.03671 13.9898 6.39629 15.3318Z" stroke="#0A2533" stroke-width="1.5" stroke-linecap="round" stroke-linejoin="round"/>
<path d="M9.39751 10.133C9.7571 11.475 11.7579 12.7948 11.7579 12.7948C11.7579 12.7948 13.1606 10.4289 12.6586 8.98472C12.2152 7.70943 10.1107 6.64771 10.1107 6.64771C10.1107 6.64771 9.03793 8.79107 9.39751 10.133Z" stroke="#0A2533" stroke-width="1.5" stroke-linecap="round" stroke-linejoin="round"/>
</svg>
